<svg xmlns="http://www.w3.org/2000/svg" viewBox="0 0 1024 1024" width="1024" height="1024">
  <defs>
    <linearGradient id="bg" x1="0" y1="0" x2="0" y2="1"><stop offset="0" stop-color="#4F5BD5"/><stop offset="1" stop-color="#2E2F8F"/></linearGradient>
    <filter id="lift" x="-20%" y="-20%" width="140%" height="140%"><feDropShadow dx="0" dy="12" stdDeviation="17" flood-color="#0F1050" flood-opacity=".35"/></filter>
  </defs>
  <rect width="1024" height="1024" fill="url(#bg)"/>
  <g transform="translate(512 512) scale(1.2427) translate(-512 -512)">
    <g filter="url(#lift)">
      <path d="M300 924 L300 640 Q300 470 470 470 L554 470 Q724 470 724 640 L724 924 Z" fill="#fff"/>
      <rect x="520" y="216" width="300" height="180" rx="90" fill="#fff"/>
      <path d="M560 380 L530 446 L612 390 Z" fill="#fff"/>
    </g>
    <circle cx="590" cy="306" r="26" fill="#34C759"/><circle cx="670" cy="306" r="26" fill="#0A84FF"/><circle cx="750" cy="306" r="26" fill="#FF9F0A"/>
    <ellipse cx="438" cy="640" rx="32" ry="44" fill="#1E1F5C"/><ellipse cx="586" cy="640" rx="32" ry="44" fill="#1E1F5C"/>
    <ellipse cx="447" cy="625" rx="10" ry="12" fill="#fff"/><ellipse cx="595" cy="625" rx="10" ry="12" fill="#fff"/>
  </g>
</svg>
